<svg width="21" height="18" fill="none" xmlns="http://www.w3.org/2000/svg"><path d="M20.6667 2.79746c-.7358.32666-1.5267.54666-2.3567.64583.8475-.5075 1.4984-1.31167 1.8042-2.27-.7925.47-1.6708.81167-2.6058.99583-.7475-.7975-1.815-1.29583-2.995-1.29583-2.6492 0-4.59588 2.47167-3.9975 5.0375-3.40921-.17083-6.43255-1.80417-8.45671-4.28667-1.075 1.84417-.5575 4.25667 1.26916 5.47834-.67166-.02167-1.305-.20584-1.8575-.51334-.045 1.90084 1.3175 3.67918 3.29084 4.07498-.5775.1567-1.21.1934-1.85334.07.52167 1.63 2.03667 2.8159 3.83334 2.8492-1.725 1.3525-3.89834 1.9567-6.075 1.7 1.81583 1.1642 3.97333 1.8433 6.29 1.8433 7.61831 0 11.92251-6.4341 11.66251-12.20498.8017-.57916 1.4975-1.30166 2.0475-2.12416z" fill="#fff"/></svg>