<svg width="20" height="20" fill="none" xmlns="http://www.w3.org/2000/svg"><path d="M10 0C4.4775 0 0 4.47667 0 10c0 4.2367 2.63583 7.855 6.35583 9.3117-.0875-.7909-.16666-2.0042.035-2.8675.18167-.7809 1.1725-4.9709 1.1725-4.9709s-.29916-.5991-.29916-1.48497c0-1.39.80583-2.42833 1.80916-2.42833.8525 0 1.26497.64083 1.26497 1.40833 0 .8575-.5458 2.13997-.8283 3.32917-.23583.995.4992 1.8075 1.4808 1.8075 1.7775 0 3.1434-1.8742 3.1434-4.57917 0-2.39416-1.72-4.06833-4.1767-4.06833-2.845 0-4.515 2.13417-4.515 4.33917 0 .85913.33083 1.78163.74417 2.28163.08166.0992.09333.1867.06916.2875l-.2775 1.1334c-.04416.1833-.145.2225-.335.1341-1.24916-.5816-2.03-2.4075-2.03-3.87413 0-3.15417 2.29167-6.05167 6.60747-6.05167 3.4692 0 6.165 2.4725 6.165 5.77583 0 3.44667-2.1725 6.21997-5.1891 6.21997-1.0134 0-1.96587-.5258-2.2917-1.1483l-.62333 2.3775c-.22584.8692-.835 1.9583-1.24334 2.6217C7.975 19.8433 8.96917 20 10 20c5.5225 0 10-4.4775 10-10 0-5.52333-4.4775-10-10-10z" fill="#fff"/></svg>